<svg width="32" height="32" viewBox="0 0 32 32" fill="none" xmlns="http://www.w3.org/2000/svg">
  <defs>
    <linearGradient id="faviconGradient" x1="0%" y1="0%" x2="100%" y2="100%">
      <stop offset="0%" style="stop-color:#3B82F6;stop-opacity:1" />
      <stop offset="35%" style="stop-color:#6366F1;stop-opacity:1" />
      <stop offset="70%" style="stop-color:#8B5CF6;stop-opacity:1" />
      <stop offset="100%" style="stop-color:#A855F7;stop-opacity:1" />
    </linearGradient>
    <linearGradient id="accentFav" x1="0%" y1="0%" x2="100%" y2="100%">
      <stop offset="0%" style="stop-color:#FBBF24;stop-opacity:1" />
      <stop offset="100%" style="stop-color:#F59E0B;stop-opacity:1" />
    </linearGradient>
  </defs>
  
  <!-- Rounded background -->
  <rect width="32" height="32" rx="7" fill="url(#faviconGradient)"/>
  
  <!-- Inner glow -->
  <circle cx="16" cy="16" r="12" fill="white" opacity="0.12"/>
  
  <!-- Modern "C" lettermark -->
  <path d="M 23 16 A 7 7 0 1 1 16 9 L 16 12.5 A 3.5 3.5 0 1 0 19.5 16 Z" fill="white" opacity="0.98"/>
  
  <!-- Three community dots with golden accent -->
  <g opacity="0.95">
    <circle cx="12.5" cy="12.5" r="1.8" fill="white"/>
    <circle cx="12.5" cy="12.5" r="1.2" fill="url(#accentFav)"/>
    
    <circle cx="19.5" cy="12.5" r="1.8" fill="white"/>
    <circle cx="19.5" cy="12.5" r="1.2" fill="url(#accentFav)"/>
    
    <circle cx="16" cy="19.5" r="1.8" fill="white"/>
    <circle cx="16" cy="19.5" r="1.2" fill="url(#accentFav)"/>
  </g>
  
  <!-- Connection lines -->
  <g opacity="0.3" stroke="white" stroke-width="1" stroke-linecap="round">
    <line x1="12.5" y1="12.5" x2="19.5" y2="12.5"/>
    <line x1="12.5" y1="12.5" x2="16" y2="19.5"/>
    <line x1="19.5" y1="12.5" x2="16" y2="19.5"/>
  </g>
</svg>
